<svg xmlns="http://www.w3.org/2000/svg" xmlns:xlink="http://www.w3.org/1999/xlink" xmlns:xodm="http://www.corel.com/coreldraw/odm/2003" xml:space="preserve" version="1.1" style="shape-rendering:geometricPrecision;text-rendering:geometricPrecision;image-rendering:optimizeQuality;" viewBox="-1 -1 10 10" x="0px" y="0px" fill-rule="evenodd" clip-rule="evenodd"><defs><style type="text/css">
   
    .fil0 {fill:black;fill-rule:nonzero}
   
  </style></defs><g><path class="fil0" d="M7.4037 2.0122l0 5.3209c0,0.1956 -0.0798,0.3733 -0.2083,0.5018 -0.1286,0.1286 -0.3062,0.2084 -0.5018,0.2084l-4.9205 0c-0.195,0 -0.3725,-0.0798 -0.5013,-0.2084l-0.0008 -0.0008c-0.1284,-0.1287 -0.2081,-0.3061 -0.2081,-0.501l0 -6.1996c0,-0.195 0.0798,-0.3725 0.2084,-0.5013l0.0008 -0.0008c0.1287,-0.1284 0.3061,-0.2081 0.501,-0.2081l4.0418 0c0.0351,0 0.0668,0.0142 0.0898,0.0372l1.4618 1.4619c0.0248,0.0247 0.0371,0.0573 0.0372,0.0898zm-4.9645 4.3331c-0.0701,0 -0.127,-0.0569 -0.127,-0.127 0,-0.0701 0.0569,-0.127 0.127,-0.127l3.5884 0c0.0701,0 0.127,0.0569 0.127,0.127 0,0.0701 -0.0569,0.127 -0.127,0.127l-3.5884 0zm0 -1.671c-0.0701,0 -0.127,-0.0569 -0.127,-0.127 0,-0.0701 0.0569,-0.127 0.127,-0.127l3.5884 0c0.0701,0 0.127,0.0569 0.127,0.127 0,0.0701 -0.0569,0.127 -0.127,0.127l-3.5884 0zm0 -1.6709c-0.0701,0 -0.127,-0.0569 -0.127,-0.127 0,-0.0701 0.0569,-0.127 0.127,-0.127l3.5884 0c0.0701,0 0.127,0.0569 0.127,0.127 0,0.0701 -0.0569,0.127 -0.127,0.127l-3.5884 0zm3.5027 -2.1465l0 1.0283 1.0282 0 -1.0282 -1.0283zm1.2078 1.2823l-1.3348 0c-0.0701,0 -0.127,-0.0569 -0.127,-0.127l0 -1.3349 -3.9148 0c-0.1258,0 -0.2399,0.0511 -0.3222,0.1335 -0.0829,0.0828 -0.134,0.1969 -0.134,0.3227l0 6.1996c0,0.1258 0.0511,0.2399 0.1335,0.3222 0.0828,0.0829 0.1969,0.134 0.3227,0.134l4.9205 0c0.1255,0 0.2395,-0.0513 0.3222,-0.134 0.0825,-0.0825 0.1339,-0.1967 0.1339,-0.3222l0 -5.1939z"/></g></svg>