<svg xmlns="http://www.w3.org/2000/svg" viewBox="0 -8 60 80" x="0px" y="0px"><title>language, translate, translation, translator</title><g><path d="M55.63,22.25H39.44V11.06a6.818,6.818,0,0,0-6.81-6.81H8.37a6.818,6.818,0,0,0-6.81,6.81V26.23a6.733,6.733,0,0,0,1.15,3.78c2.4,4.62,13.47,11.45,13.59,11.52a1.559,1.559,0,0,0,.78.22,1.492,1.492,0,0,0,1.39-2.06,41.784,41.784,0,0,1-1.86-6.66h7.95v11.2a6.809,6.809,0,0,0,6.81,6.8H47.39a41.784,41.784,0,0,1-1.86,6.66,1.492,1.492,0,0,0,1.39,2.06,1.559,1.559,0,0,0,.78-.22c.12-.07,11.19-6.9,13.59-11.52a6.733,6.733,0,0,0,1.15-3.78V29.06A6.818,6.818,0,0,0,55.63,22.25ZM20.71,26.01a11.979,11.979,0,0,1-6.35,1.6h-.03a1.5,1.5,0,1,1,0-3h.03a9.83,9.83,0,0,0,3.87-.7,13.448,13.448,0,0,1-2.34-4.01,1.5,1.5,0,1,1,2.8-1.08,9.948,9.948,0,0,0,2.02,3.35,9.887,9.887,0,0,0,2.2-5.21H14.33a1.5,1.5,0,1,1,0-3h4.71V11.33a1.5,1.5,0,1,1,3,0v2.63h4.7a1.5,1.5,0,1,1,0,3h-.81a13.063,13.063,0,0,1-2.77,6.96,8.585,8.585,0,0,0,3.08.68,6.589,6.589,0,0,0-1.48,2.86A10.61,10.61,0,0,1,20.71,26.01ZM59.44,44.23a3.649,3.649,0,0,1-.68,2.16,1.428,1.428,0,0,0-.15.27c-1.18,2.24-5.61,5.65-8.97,7.99.67-2.58,1.01-4.75,1.03-4.89a1.493,1.493,0,0,0-.34-1.2,1.538,1.538,0,0,0-1.14-.53H31.37a3.807,3.807,0,0,1-3.81-3.8V29.06a3.815,3.815,0,0,1,3.81-3.81H55.63a3.815,3.815,0,0,1,3.81,3.81ZM48.92,38.639l0-.005-3.989-9.971-.008-.016a1.353,1.353,0,0,0-.084-.16c-.019-.034-.034-.07-.055-.1a1.413,1.413,0,0,0-.1-.121,1.216,1.216,0,0,0-.086-.1,1.318,1.318,0,0,0-.107-.088,1.337,1.337,0,0,0-.118-.1c-.034-.023-.073-.04-.109-.06a1.46,1.46,0,0,0-.152-.079l-.017-.009c-.037-.015-.074-.021-.111-.032a1.354,1.354,0,0,0-.154-.044,1.458,1.458,0,0,0-.148-.018,1.376,1.376,0,0,0-.143-.011c-.052,0-.1.007-.155.012s-.091.007-.136.016a1.435,1.435,0,0,0-.162.046c-.035.012-.071.017-.106.031l-.017.009a1.359,1.359,0,0,0-.151.079c-.037.02-.076.037-.11.06s-.076.061-.114.092-.077.058-.111.092-.054.066-.082.1a1.369,1.369,0,0,0-.1.126c-.021.031-.036.067-.055.1a1.665,1.665,0,0,0-.085.162l-.008.016-3.988,9.971,0,.005-2.01,5.024a1.5,1.5,0,1,0,2.785,1.114l1.623-4.057h5.969l1.623,4.057a1.5,1.5,0,1,0,2.785-1.114Zm-7.168-.919,1.785-4.461,1.784,4.461Z"/></g></svg>