<svg width="36" height="36" viewBox="0 0 36 36" fill="none" xmlns="http://www.w3.org/2000/svg">
<path d="M34.4283 0.148193H1.57115C0.780971 0.148193 0.142578 0.786586 0.142578 1.57676V34.4339C0.142578 35.2241 0.780971 35.8625 1.57115 35.8625H34.4283C35.2185 35.8625 35.8569 35.2241 35.8569 34.4339V1.57676C35.8569 0.786586 35.2185 0.148193 34.4283 0.148193ZM32.6426 32.6482H3.35686V3.36248H32.6426V32.6482ZM17.1069 13.0053H25.3212C25.5176 13.0053 25.6783 12.8446 25.6783 12.6482V10.5053C25.6783 10.3089 25.5176 10.1482 25.3212 10.1482H17.1069C16.9104 10.1482 16.7497 10.3089 16.7497 10.5053V12.6482C16.7497 12.8446 16.9104 13.0053 17.1069 13.0053ZM17.1069 19.4339H25.3212C25.5176 19.4339 25.6783 19.2732 25.6783 19.0768V16.9339C25.6783 16.7375 25.5176 16.5768 25.3212 16.5768H17.1069C16.9104 16.5768 16.7497 16.7375 16.7497 16.9339V19.0768C16.7497 19.2732 16.9104 19.4339 17.1069 19.4339ZM17.1069 25.8625H25.3212C25.5176 25.8625 25.6783 25.7018 25.6783 25.5053V23.3625C25.6783 23.1661 25.5176 23.0053 25.3212 23.0053H17.1069C16.9104 23.0053 16.7497 23.1661 16.7497 23.3625V25.5053C16.7497 25.7018 16.9104 25.8625 17.1069 25.8625ZM10.3211 11.5768C10.3211 12.0504 10.5093 12.5046 10.8442 12.8395C11.1791 13.1743 11.6333 13.3625 12.1069 13.3625C12.5805 13.3625 13.0347 13.1743 13.3696 12.8395C13.7044 12.5046 13.8926 12.0504 13.8926 11.5768C13.8926 11.1032 13.7044 10.649 13.3696 10.3141C13.0347 9.97919 12.5805 9.79105 12.1069 9.79105C11.6333 9.79105 11.1791 9.97919 10.8442 10.3141C10.5093 10.649 10.3211 11.1032 10.3211 11.5768V11.5768ZM10.3211 18.0053C10.3211 18.4789 10.5093 18.9331 10.8442 19.268C11.1791 19.6029 11.6333 19.7911 12.1069 19.7911C12.5805 19.7911 13.0347 19.6029 13.3696 19.268C13.7044 18.9331 13.8926 18.4789 13.8926 18.0053C13.8926 17.5317 13.7044 17.0775 13.3696 16.7426C13.0347 16.4078 12.5805 16.2196 12.1069 16.2196C11.6333 16.2196 11.1791 16.4078 10.8442 16.7426C10.5093 17.0775 10.3211 17.5317 10.3211 18.0053ZM10.3211 24.4339C10.3211 24.9075 10.5093 25.3617 10.8442 25.6966C11.1791 26.0315 11.6333 26.2196 12.1069 26.2196C12.5805 26.2196 13.0347 26.0315 13.3696 25.6966C13.7044 25.3617 13.8926 24.9075 13.8926 24.4339C13.8926 23.9603 13.7044 23.5061 13.3696 23.1712C13.0347 22.8363 12.5805 22.6482 12.1069 22.6482C11.6333 22.6482 11.1791 22.8363 10.8442 23.1712C10.5093 23.5061 10.3211 23.9603 10.3211 24.4339V24.4339Z" fill="#19455D"/>
</svg>
