<svg width="40" height="42" viewBox="0 0 40 42" fill="none" xmlns="http://www.w3.org/2000/svg">
<g filter="url(#filter0_d_1140_8182)">
<rect width="40" height="40" rx="8" fill="#FFCC80" shape-rendering="crispEdges"/>
<mask id="path-2-inside-1_1140_8182" fill="white">
<path fill-rule="evenodd" clip-rule="evenodd" d="M24.1429 24.3516C26.7618 22.8367 28.5238 20.005 28.5238 16.7619C28.5238 11.9228 24.601 8 19.7619 8C14.9228 8 11 11.9228 11 16.7619C11 20.005 12.762 22.8366 15.3809 24.3516V26.254C15.3809 27.4637 16.3617 28.4444 17.5714 28.4444H21.9524C23.1621 28.4444 24.1429 27.4637 24.1429 26.254V24.3516Z"/>
</mask>
<path d="M24.1429 24.3516L23.4418 23.1398L22.7429 23.5441V24.3516H24.1429ZM15.3809 24.3516H16.7809V23.5441L16.082 23.1398L15.3809 24.3516ZM27.1238 16.7619C27.1238 19.4851 25.646 21.8648 23.4418 23.1398L24.8439 25.5635C27.8776 23.8085 29.9238 20.525 29.9238 16.7619H27.1238ZM19.7619 9.4C23.8278 9.4 27.1238 12.696 27.1238 16.7619H29.9238C29.9238 11.1496 25.3742 6.6 19.7619 6.6V9.4ZM12.4 16.7619C12.4 12.696 15.696 9.4 19.7619 9.4V6.6C14.1496 6.6 9.6 11.1496 9.6 16.7619H12.4ZM16.082 23.1398C13.8778 21.8647 12.4 19.4851 12.4 16.7619H9.6C9.6 20.525 11.6462 23.8085 14.6799 25.5635L16.082 23.1398ZM16.7809 26.254V24.3516H13.9809V26.254H16.7809ZM17.5714 27.0444C17.1349 27.0444 16.7809 26.6905 16.7809 26.254H13.9809C13.9809 28.2369 15.5885 29.8444 17.5714 29.8444V27.0444ZM21.9524 27.0444H17.5714V29.8444H21.9524V27.0444ZM22.7429 26.254C22.7429 26.6905 22.3889 27.0444 21.9524 27.0444V29.8444C23.9353 29.8444 25.5429 28.2369 25.5429 26.254H22.7429ZM22.7429 24.3516V26.254H25.5429V24.3516H22.7429Z" fill="white" mask="url(#path-2-inside-1_1140_8182)"/>
<path d="M16.4766 31H23.048" stroke="white" stroke-width="1.4" stroke-linecap="round"/>
<path d="M21 11C22.3333 11.3333 25 12.8 25 16" stroke="white" stroke-width="1.4" stroke-linecap="round"/>
</g>
<defs>
<filter id="filter0_d_1140_8182" x="0" y="0" width="40" height="42" filterUnits="userSpaceOnUse" color-interpolation-filters="sRGB">
<feFlood flood-opacity="0" result="BackgroundImageFix"/>
<feColorMatrix in="SourceAlpha" type="matrix" values="0 0 0 0 0 0 0 0 0 0 0 0 0 0 0 0 0 0 127 0" result="hardAlpha"/>
<feOffset dy="2"/>
<feComposite in2="hardAlpha" operator="out"/>
<feColorMatrix type="matrix" values="0 0 0 0 0.904167 0 0 0 0 0.617244 0 0 0 0 0.455851 0 0 0 1 0"/>
<feBlend mode="normal" in2="BackgroundImageFix" result="effect1_dropShadow_1140_8182"/>
<feBlend mode="normal" in="SourceGraphic" in2="effect1_dropShadow_1140_8182" result="shape"/>
</filter>
</defs>
</svg>
